<svg width="16" height="16" viewBox="0 0 16 16" fill="none" xmlns="http://www.w3.org/2000/svg">
<path d="M10.3867 7.99995C10.3867 9.31995 9.32 10.3866 8 10.3866C6.68 10.3866 5.61333 9.31995 5.61333 7.99995C5.61333 6.67995 6.68 5.61328 8 5.61328C9.32 5.61328 10.3867 6.67995 10.3867 7.99995Z" stroke="#003566" stroke-linecap="round" stroke-linejoin="round"/>
<path d="M8 13.5133C10.3533 13.5133 12.5467 12.1266 14.0733 9.72665C15.2 7.9999 15.1759 7.9999 14.0733 6.26665C12.5467 3.86665 10.3533 2.47998 8 2.47998C5.64667 2.47998 3.45334 3.86665 1.92667 6.26665C0.824087 7.9999 0.79996 7.9999 1.92667 9.72665C3.45334 12.1266 5.64667 13.5133 8 13.5133Z" stroke="#003566" stroke-linecap="round" stroke-linejoin="round"/>
</svg>
