<svg width="16" height="16" viewBox="0 0 16 16" fill="none" xmlns="http://www.w3.org/2000/svg">
<path d="M6.66667 11.6667H9.33333" stroke="#003566" stroke-linecap="round" stroke-linejoin="round"/>
<path d="M1.33333 11.6667V5.00008C1.33333 2.33341 2 1.66675 4.66667 1.66675" stroke="#003566" stroke-linecap="round" stroke-linejoin="round"/>
<path d="M14.6667 11.6667V5.00008C14.6667 2.33341 14 1.66675 11.3333 1.66675" stroke="#003566" stroke-linecap="round" stroke-linejoin="round"/>
<path d="M6.66667 10.6067V12.8C6.66667 14.1333 6.13333 14.6667 4.8 14.6667H3.2C1.86667 14.6667 1.33333 14.1333 1.33333 12.8V10.6067C1.33333 9.27332 1.86667 8.73999 3.2 8.73999H4.8C6.13333 8.73999 6.66667 9.27332 6.66667 10.6067Z" stroke="#003566" stroke-linecap="round" stroke-linejoin="round"/>
<path d="M14.6667 10.6067V12.8C14.6667 14.1333 14.1333 14.6667 12.8 14.6667H11.2C9.86667 14.6667 9.33333 14.1333 9.33333 12.8V10.6067C9.33333 9.27332 9.86667 8.73999 11.2 8.73999H12.8C14.1333 8.73999 14.6667 9.27332 14.6667 10.6067Z" stroke="#003566" stroke-linecap="round" stroke-linejoin="round"/>
</svg>
