<svg width="16" height="16" viewBox="0 0 16 16" fill="none" xmlns="http://www.w3.org/2000/svg">
<g clip-path="url(#clip0_597_47463)">
<path d="M15.5556 8.87305H13.3333V11.5391L12.4444 10.9475L11.5556 11.5391V8.87305H9.33333C9.08889 8.87305 8.88889 9.073 8.88889 9.31738V14.6494C8.88889 14.8938 9.08889 15.0938 9.33333 15.0938H15.5556C15.8 15.0938 16 14.8938 16 14.6494V9.31738C16 9.073 15.8 8.87305 15.5556 8.87305ZM4.88889 7.0957H11.1111C11.3556 7.0957 11.5556 6.89575 11.5556 6.65137V1.31934C11.5556 1.07495 11.3556 0.875 11.1111 0.875H8.88889V3.54102L8 2.94949L7.11111 3.54102V0.875H4.88889C4.64444 0.875 4.44444 1.07495 4.44444 1.31934V6.65137C4.44444 6.89575 4.64444 7.0957 4.88889 7.0957ZM6.66667 8.87305H4.44444V11.5391L3.55556 10.9475L2.66667 11.5391V8.87305H0.444444C0.2 8.87305 0 9.073 0 9.31738V14.6494C0 14.8938 0.2 15.0938 0.444444 15.0938H6.66667C6.91111 15.0938 7.11111 14.8938 7.11111 14.6494V9.31738C7.11111 9.073 6.91111 8.87305 6.66667 8.87305Z" fill="#003566"/>
</g>
<defs>
<clipPath id="clip0_597_47463">
<rect width="16" height="16" fill="white"/>
</clipPath>
</defs>
</svg>
