<svg width="16" height="16" viewBox="0 0 16 16" fill="none" xmlns="http://www.w3.org/2000/svg">
<g clip-path="url(#clip0_597_48323)">
<path d="M14.6667 3H1.33333C0.596944 3 0 3.58762 0 4.3125V12.1875C0 12.9121 0.596944 13.5 1.33333 13.5H14.6667C15.4031 13.5 16 12.9124 16 12.1875V4.3125C16 3.58762 15.4028 3 14.6667 3ZM1.33333 12.1875V10.4375C2.31611 10.4375 3.11111 11.2201 3.11111 12.1875H1.33333ZM1.33333 6.0625V4.3125H3.11111C3.11111 5.28047 2.31611 6.0625 1.33333 6.0625ZM8 10.875C6.77278 10.875 5.77778 9.69977 5.77778 8.25C5.77778 6.80023 6.77278 5.625 8 5.625C9.22722 5.625 10.2222 6.80023 10.2222 8.25C10.2222 9.69922 9.22778 10.875 8 10.875ZM14.6667 12.1875H12.8889C12.8889 11.2201 13.6839 10.4375 14.6667 10.4375V12.1875ZM14.6667 6.0625C13.6839 6.0625 12.8889 5.27992 12.8889 4.3125H14.6667V6.0625Z" fill="#003566"/>
</g>
<defs>
<clipPath id="clip0_597_48323">
<rect width="16" height="16" fill="white"/>
</clipPath>
</defs>
</svg>
