<svg width="16" height="16" viewBox="0 0 16 16" fill="none" xmlns="http://www.w3.org/2000/svg">
<path d="M11.3333 12.2868H8.66667L5.69999 14.2601C5.25999 14.5535 4.66667 14.2402 4.66667 13.7068V12.2868C2.66667 12.2868 1.33333 10.9535 1.33333 8.95349V4.95345C1.33333 2.95345 2.66667 1.62012 4.66667 1.62012H11.3333C13.3333 1.62012 14.6667 2.95345 14.6667 4.95345V8.95349C14.6667 10.9535 13.3333 12.2868 11.3333 12.2868Z" stroke="#003566" stroke-width="1.5" stroke-miterlimit="10" stroke-linecap="round" stroke-linejoin="round"/>
<path d="M8 8V7.81337C8 7.20892 8.37955 6.88891 8.75907 6.63113C9.12956 6.38224 9.5 6.06225 9.5 5.47559C9.5 4.65781 8.83134 4 8 4C7.16866 4 6.5 4.65781 6.5 5.47559" stroke="#003566" stroke-width="1.5" stroke-linecap="round" stroke-linejoin="round"/>
<path d="M7.991 10H8.009" stroke="#003566" stroke-width="1.5" stroke-linecap="round" stroke-linejoin="round"/>
</svg>
