<svg width="16" height="16" viewBox="0 0 16 16" fill="none" xmlns="http://www.w3.org/2000/svg">
<path d="M4.83333 4.66659H11.1667V3.33325C11.1667 1.99992 10.6667 1.33325 9.16666 1.33325H6.83333C5.33333 1.33325 4.83333 1.99992 4.83333 3.33325V4.66659Z" stroke="#003566" stroke-width="1.5" stroke-miterlimit="10" stroke-linecap="round" stroke-linejoin="round"/>
<path d="M10.6667 10V12.6667C10.6667 14 10 14.6667 8.66666 14.6667H7.33333C5.99999 14.6667 5.33333 14 5.33333 12.6667V10H10.6667Z" stroke="#003566" stroke-width="1.5" stroke-miterlimit="10" stroke-linecap="round" stroke-linejoin="round"/>
<path d="M14 6.66675V10.0001C14 11.3334 13.3333 12.0001 12 12.0001H10.6667V10.0001H5.33333V12.0001H4C2.66667 12.0001 2 11.3334 2 10.0001V6.66675C2 5.33341 2.66667 4.66675 4 4.66675H12C13.3333 4.66675 14 5.33341 14 6.66675Z" stroke="#003566" stroke-width="1.5" stroke-miterlimit="10" stroke-linecap="round" stroke-linejoin="round"/>
<path d="M11.3333 10H10.5267H4.66667" stroke="#003566" stroke-width="1.5" stroke-miterlimit="10" stroke-linecap="round" stroke-linejoin="round"/>
<path d="M4.66667 7.33325H6.66667" stroke="#003566" stroke-width="1.5" stroke-miterlimit="10" stroke-linecap="round" stroke-linejoin="round"/>
</svg>
